# xmcd CD database file
#
# Track frame offsets:
#	154
#	9127
#	17144
#	27100
#	36810
#	51161
#	63253
#	71515
#	84095
#	98090
#
# Disc length: 1426 seconds
#
# Revision: 0
# Processed by: cddbd v1.5.2PL0 Copyright (c) Steve Scherf et al.
# Submitted via: CDex 1.70beta2
#
DISCID=6905900a
DTITLE=The Children's Guild - Jazz For Kids
DYEAR=2001
DGENRE=Jazz
TTITLE0=It Don't Mean A Thing
TTITLE1=How Come You Do Me
TTITLE2=Sing, Sing, Sing
TTITLE3=Tain't What You Do
TTITLE4=Zulu Man 'Diga-Diga-Do'
TTITLE5=The Jazz Man 'St. James Infirmary Blues'
TTITLE6=Everybody Loves My Baby
TTITLE7=School Day Blues
TTITLE8=Listen to the Jazz Band 'Royal Garden Blues'
TTITLE9=When You're Smiling
EXTD=YEAR: 2001
EXTT0=
EXTT1=
EXTT2=
EXTT3=
EXTT4=
EXTT5=
EXTT6=
EXTT7=
EXTT8=
EXTT9=
PLAYORDER=
